<mxfile host="app.diagrams.net" modified="2020-06-16T10:11:31.699Z" agent="5.0 (Windows NT 10.0; Win64; x64) AppleWebKit/537.36 (KHTML, like Gecko) Chrome/83.0.4103.106 Safari/537.36" etag="z1Bi3udaUkKgZR8gbqh5" version="13.2.4" type="github">
  <diagram name="Page-1" id="c7558073-3199-34d8-9f00-42111426c3f3">
    <mxGraphModel dx="1090" dy="602" grid="1" gridSize="10" guides="1" tooltips="1" connect="1" arrows="1" fold="1" page="1" pageScale="1" pageWidth="826" pageHeight="1169" background="#ffffff" math="0" shadow="0">
      <root>
        <mxCell id="0" />
        <mxCell id="1" parent="0" />
        <mxCell id="7W_plpCJhQbWiAo0D66k-156" value="&lt;p style=&quot;margin: 0px ; margin-top: 4px ; text-align: center ; text-decoration: underline&quot;&gt;&lt;br&gt;&lt;/p&gt;" style="verticalAlign=middle;align=center;overflow=fill;fontSize=12;fontFamily=Helvetica;html=1;rounded=1;fontStyle=1;strokeWidth=3;fillColor=#fff2cc;strokeColor=#d6b656;" vertex="1" parent="1">
          <mxGeometry x="15" y="170" width="785" height="440" as="geometry" />
        </mxCell>
        <mxCell id="9" value="&lt;p style=&quot;margin: 0px; margin-top: 4px; text-align: center; text-decoration: underline;&quot;&gt;&lt;strong&gt;&lt;strong&gt;Process&lt;/strong&gt; 5&lt;br /&gt;&lt;/strong&gt;&lt;/p&gt;&lt;hr /&gt;&lt;p style=&quot;margin: 0px; margin-left: 8px;&quot;&gt;New System&lt;/p&gt;&lt;p style=&quot;margin: 0px; margin-left: 8px;&quot;&gt;Design&lt;/p&gt;" style="verticalAlign=middle;align=center;overflow=fill;fontSize=12;fontFamily=Helvetica;html=1;rounded=1;fontStyle=1;strokeWidth=3;fillColor=#E6FFCC" parent="1" vertex="1">
          <mxGeometry x="393.25" y="725" width="110" height="90" as="geometry" />
        </mxCell>
        <mxCell id="10" value="&lt;p style=&quot;margin: 0px; margin-top: 4px; text-align: center; text-decoration: underline;&quot;&gt;&lt;strong&gt;&lt;strong&gt;Process&lt;/strong&gt; 6&lt;br /&gt;&lt;/strong&gt;&lt;/p&gt;&lt;hr /&gt;&lt;p style=&quot;margin: 0px; margin-left: 8px;&quot;&gt;New&lt;/p&gt;&lt;p style=&quot;margin: 0px; margin-left: 8px;&quot;&gt;System&lt;/p&gt;&lt;p style=&quot;margin: 0px; margin-left: 8px;&quot;&gt;Construction&lt;/p&gt;" style="verticalAlign=middle;align=center;overflow=fill;fontSize=12;fontFamily=Helvetica;html=1;rounded=1;fontStyle=1;strokeWidth=3;fillColor=#E6FFCC" parent="1" vertex="1">
          <mxGeometry x="199.99999999999991" y="860" width="110" height="90" as="geometry" />
        </mxCell>
        <mxCell id="14" value="ECG" style="whiteSpace=wrap;align=center;verticalAlign=middle;fontStyle=1;strokeWidth=3;fillColor=#FFFFCC" parent="1" vertex="1">
          <mxGeometry x="59.99999999999997" y="739.9999999999999" width="90" height="60" as="geometry" />
        </mxCell>
        <mxCell id="11" value="&lt;p style=&quot;margin: 0px; margin-top: 4px; text-align: center; text-decoration: underline;&quot;&gt;&lt;strong&gt;&lt;strong&gt;Process&lt;/strong&gt; 7&lt;br /&gt;&lt;/strong&gt;&lt;/p&gt;&lt;hr /&gt;&lt;p style=&quot;margin: 0px; margin-left: 8px;&quot;&gt;New System&lt;/p&gt;&lt;p style=&quot;margin: 0px; margin-left: 8px;&quot;&gt;Startup and&lt;/p&gt;&lt;p style=&quot;margin: 0px; margin-left: 8px;&quot;&gt;Testing&lt;/p&gt;" style="verticalAlign=middle;align=center;overflow=fill;fontSize=12;fontFamily=Helvetica;html=1;rounded=1;fontStyle=1;strokeWidth=3;fillColor=#E6FFCC" parent="1" vertex="1">
          <mxGeometry x="196.74999999999994" y="725" width="110" height="90" as="geometry" />
        </mxCell>
        <mxCell id="51" value="" style="endArrow=none;noEdgeStyle=1;strokeColor=#990000;strokeWidth=2" parent="1" source="9" target="11" edge="1">
          <mxGeometry relative="1" as="geometry">
            <mxPoint x="58.25819672131135" y="696" as="sourcePoint" />
            <mxPoint x="253.57786885245895" y="865" as="targetPoint" />
          </mxGeometry>
        </mxCell>
        <mxCell id="85" value="" style="edgeStyle=elbowEdgeStyle;elbow=horizontal;strokeColor=#990000;strokeWidth=2" parent="1" source="10" edge="1">
          <mxGeometry width="100" height="100" relative="1" as="geometry">
            <mxPoint x="135.0000000000001" y="1120" as="sourcePoint" />
            <mxPoint x="353.5" y="1010" as="targetPoint" />
            <Array as="points">
              <mxPoint x="249" y="1010" />
            </Array>
          </mxGeometry>
        </mxCell>
        <mxCell id="86" value="Progress&#xa;Reports" style="text;spacingTop=-5;align=center" parent="1" vertex="1">
          <mxGeometry x="245.99999999999994" y="1170" width="30" height="20" as="geometry" />
        </mxCell>
        <mxCell id="87" value="" style="edgeStyle=elbowEdgeStyle;elbow=vertical;strokeColor=#990000;strokeWidth=2" parent="1" source="7W_plpCJhQbWiAo0D66k-156" target="14" edge="1">
          <mxGeometry width="100" height="100" relative="1" as="geometry">
            <mxPoint x="75" y="1120" as="sourcePoint" />
            <mxPoint x="175" y="1020" as="targetPoint" />
          </mxGeometry>
        </mxCell>
        <mxCell id="7W_plpCJhQbWiAo0D66k-100" value="Polaris&lt;br&gt;" style="dashed=0;outlineConnect=0;html=1;align=center;labelPosition=center;verticalLabelPosition=bottom;verticalAlign=top;shape=mxgraph.weblogos.apple;fillColor=#1B1C1C;strokeColor=none" vertex="1" parent="1">
          <mxGeometry x="351" y="970" width="62.400000000000006" height="76.2" as="geometry" />
        </mxCell>
        <mxCell id="7W_plpCJhQbWiAo0D66k-104" value="&lt;p style=&quot;margin: 0px ; margin-top: 4px ; text-align: center ; text-decoration: underline&quot;&gt;&lt;strong&gt;ECS Extract&lt;/strong&gt;&lt;/p&gt;&lt;hr&gt;&lt;p style=&quot;margin: 0px ; margin-left: 8px&quot;&gt;APEGL&lt;/p&gt;&lt;p style=&quot;margin: 0px ; margin-left: 8px&quot;&gt;APPLB&lt;/p&gt;&lt;p style=&quot;margin: 0px ; margin-left: 8px&quot;&gt;APPRO&lt;/p&gt;&lt;div&gt;&lt;br&gt;&lt;/div&gt;" style="verticalAlign=middle;align=center;overflow=fill;fontSize=12;fontFamily=Helvetica;html=1;rounded=1;fontStyle=1;strokeWidth=3;fillColor=#E6FFCC" vertex="1" parent="1">
          <mxGeometry x="29.999999999999915" y="40" width="110" height="90" as="geometry" />
        </mxCell>
        <mxCell id="7W_plpCJhQbWiAo0D66k-112" value="" style="edgeStyle=orthogonalEdgeStyle;rounded=0;orthogonalLoop=1;jettySize=auto;html=1;" edge="1" parent="1" source="7W_plpCJhQbWiAo0D66k-107" target="7W_plpCJhQbWiAo0D66k-111">
          <mxGeometry relative="1" as="geometry" />
        </mxCell>
        <mxCell id="7W_plpCJhQbWiAo0D66k-107" value="&lt;div style=&quot;box-sizing: border-box ; width: 100% ; background: #e4e4e4 ; padding: 2px&quot;&gt;exportcustreq&lt;/div&gt;&lt;table style=&quot;width: 100% ; font-size: 1em&quot; cellpadding=&quot;2&quot; cellspacing=&quot;0&quot;&gt;&lt;tbody&gt;&lt;tr&gt;&lt;td&gt;expcustreqid = 265&lt;br&gt;&lt;/td&gt;&lt;td&gt;&lt;/td&gt;&lt;/tr&gt;&lt;/tbody&gt;&lt;/table&gt;" style="verticalAlign=top;align=left;overflow=fill;html=1;" vertex="1" parent="1">
          <mxGeometry x="160" y="60" width="124" height="50" as="geometry" />
        </mxCell>
        <mxCell id="7W_plpCJhQbWiAo0D66k-111" value="&lt;div style=&quot;box-sizing: border-box ; width: 100% ; background: #e4e4e4 ; padding: 2px&quot;&gt;reprtfreightstatus&lt;/div&gt;&lt;table style=&quot;width: 100% ; font-size: 1em&quot; cellpadding=&quot;2&quot; cellspacing=&quot;0&quot;&gt;&lt;tbody&gt;&lt;tr&gt;&lt;td&gt;expcustreqid = 265&lt;br&gt;&lt;/td&gt;&lt;td&gt;&lt;/td&gt;&lt;/tr&gt;&lt;/tbody&gt;&lt;/table&gt;" style="verticalAlign=top;align=left;overflow=fill;html=1;" vertex="1" parent="1">
          <mxGeometry x="329.5" y="60" width="124" height="50" as="geometry" />
        </mxCell>
        <mxCell id="7W_plpCJhQbWiAo0D66k-108" value="&lt;div style=&quot;box-sizing: border-box ; width: 100% ; background: #e4e4e4 ; padding: 2px&quot;&gt;&lt;span style=&quot;background-color: rgb(248 , 249 , 250)&quot;&gt;logextract&amp;nbsp;&lt;/span&gt;&lt;br&gt;&lt;/div&gt;&lt;table style=&quot;width: 100% ; font-size: 1em&quot; cellpadding=&quot;2&quot; cellspacing=&quot;0&quot;&gt;&lt;tbody&gt;&lt;tr&gt;&lt;td&gt;logextractid = 68&lt;br&gt;&lt;/td&gt;&lt;td&gt;&lt;/td&gt;&lt;/tr&gt;&lt;/tbody&gt;&lt;/table&gt;logextractcode APPLSF" style="verticalAlign=top;align=left;overflow=fill;html=1;" vertex="1" parent="1">
          <mxGeometry x="540" y="60" width="135" height="50" as="geometry" />
        </mxCell>
        <mxCell id="7W_plpCJhQbWiAo0D66k-128" value="" style="edgeStyle=orthogonalEdgeStyle;rounded=0;orthogonalLoop=1;jettySize=auto;html=1;" edge="1" parent="1" source="7W_plpCJhQbWiAo0D66k-126" target="7W_plpCJhQbWiAo0D66k-127">
          <mxGeometry relative="1" as="geometry" />
        </mxCell>
        <mxCell id="7W_plpCJhQbWiAo0D66k-126" value="&lt;span style=&quot;text-align: left&quot;&gt;Use systemtms for Future or RDD, RDC status codes&lt;/span&gt;" style="rounded=1;whiteSpace=wrap;html=1;align=center;fillColor=#dae8fc;strokeColor=#6c8ebf;" vertex="1" parent="1">
          <mxGeometry x="60" y="320" width="120" height="60" as="geometry" />
        </mxCell>
        <mxCell id="7W_plpCJhQbWiAo0D66k-130" value="" style="edgeStyle=orthogonalEdgeStyle;rounded=0;orthogonalLoop=1;jettySize=auto;html=1;" edge="1" parent="1" source="7W_plpCJhQbWiAo0D66k-127" target="7W_plpCJhQbWiAo0D66k-129">
          <mxGeometry relative="1" as="geometry" />
        </mxCell>
        <mxCell id="7W_plpCJhQbWiAo0D66k-127" value="&lt;span style=&quot;text-align: left&quot;&gt;Remove con level CCP &amp;amp; EEL&lt;/span&gt;" style="rounded=1;whiteSpace=wrap;html=1;align=center;fillColor=#dae8fc;strokeColor=#6c8ebf;" vertex="1" parent="1">
          <mxGeometry x="200" y="320" width="120" height="60" as="geometry" />
        </mxCell>
        <mxCell id="7W_plpCJhQbWiAo0D66k-132" value="" style="edgeStyle=orthogonalEdgeStyle;rounded=0;orthogonalLoop=1;jettySize=auto;html=1;" edge="1" parent="1" source="7W_plpCJhQbWiAo0D66k-129" target="7W_plpCJhQbWiAo0D66k-131">
          <mxGeometry relative="1" as="geometry" />
        </mxCell>
        <mxCell id="7W_plpCJhQbWiAo0D66k-129" value="&lt;span style=&quot;text-align: left&quot;&gt;Add item level&amp;nbsp;&#39;CCP&#39;,&#39;CWC&#39;,&#39;RID&#39;&lt;/span&gt;" style="rounded=1;whiteSpace=wrap;html=1;align=center;fillColor=#dae8fc;strokeColor=#6c8ebf;" vertex="1" parent="1">
          <mxGeometry x="333.5" y="320" width="130" height="60" as="geometry" />
        </mxCell>
        <mxCell id="7W_plpCJhQbWiAo0D66k-134" value="" style="edgeStyle=orthogonalEdgeStyle;rounded=0;orthogonalLoop=1;jettySize=auto;html=1;" edge="1" parent="1" source="7W_plpCJhQbWiAo0D66k-131" target="7W_plpCJhQbWiAo0D66k-133">
          <mxGeometry relative="1" as="geometry" />
        </mxCell>
        <mxCell id="7W_plpCJhQbWiAo0D66k-131" value="&lt;span style=&quot;text-align: left&quot;&gt;Generate &#39;EDD&#39; from marketed dlv time.&lt;/span&gt;" style="rounded=1;whiteSpace=wrap;html=1;align=center;fillColor=#dae8fc;strokeColor=#6c8ebf;" vertex="1" parent="1">
          <mxGeometry x="481" y="320" width="130" height="60" as="geometry" />
        </mxCell>
        <mxCell id="7W_plpCJhQbWiAo0D66k-139" value="" style="edgeStyle=orthogonalEdgeStyle;rounded=0;orthogonalLoop=1;jettySize=auto;html=1;exitX=1;exitY=0.5;exitDx=0;exitDy=0;" edge="1" parent="1" source="7W_plpCJhQbWiAo0D66k-133" target="7W_plpCJhQbWiAo0D66k-138">
          <mxGeometry relative="1" as="geometry" />
        </mxCell>
        <mxCell id="7W_plpCJhQbWiAo0D66k-133" value="&lt;span style=&quot;text-align: left&quot;&gt;Generate &#39;EDD&#39; from&amp;nbsp;&#39;CRD&#39;,&#39;CRC&#39;, &#39;CRP&#39;,&#39;RDD&#39;,&#39;RDC&#39;&lt;/span&gt;" style="rounded=1;whiteSpace=wrap;html=1;align=center;fillColor=#dae8fc;strokeColor=#6c8ebf;" vertex="1" parent="1">
          <mxGeometry x="625" y="320" width="125" height="60" as="geometry" />
        </mxCell>
        <mxCell id="7W_plpCJhQbWiAo0D66k-141" value="" style="edgeStyle=orthogonalEdgeStyle;rounded=0;orthogonalLoop=1;jettySize=auto;html=1;" edge="1" parent="1" source="7W_plpCJhQbWiAo0D66k-138" target="7W_plpCJhQbWiAo0D66k-140">
          <mxGeometry relative="1" as="geometry" />
        </mxCell>
        <mxCell id="7W_plpCJhQbWiAo0D66k-138" value="&lt;span style=&quot;text-align: left&quot;&gt;&amp;nbsp; &amp;nbsp;- RDD, RDC EDD adjusted to end of day (23:59)&lt;/span&gt;" style="rounded=1;whiteSpace=wrap;html=1;align=center;fillColor=#dae8fc;strokeColor=#6c8ebf;" vertex="1" parent="1">
          <mxGeometry x="45" y="420" width="125" height="60" as="geometry" />
        </mxCell>
        <mxCell id="7W_plpCJhQbWiAo0D66k-143" value="" style="edgeStyle=orthogonalEdgeStyle;rounded=0;orthogonalLoop=1;jettySize=auto;html=1;" edge="1" parent="1" source="7W_plpCJhQbWiAo0D66k-140" target="7W_plpCJhQbWiAo0D66k-142">
          <mxGeometry relative="1" as="geometry" />
        </mxCell>
        <mxCell id="7W_plpCJhQbWiAo0D66k-140" value="&lt;span style=&quot;text-align: left&quot;&gt;&amp;nbsp; &amp;nbsp;-&amp;nbsp;&#39;CRD&#39;,&#39;CRC&#39;,&#39;CRP&#39;&amp;nbsp; adjusted to today + 7 days (23:59)&lt;/span&gt;" style="rounded=1;whiteSpace=wrap;html=1;align=center;fillColor=#dae8fc;strokeColor=#6c8ebf;" vertex="1" parent="1">
          <mxGeometry x="181" y="420" width="125" height="60" as="geometry" />
        </mxCell>
        <mxCell id="7W_plpCJhQbWiAo0D66k-145" value="" style="edgeStyle=orthogonalEdgeStyle;rounded=0;orthogonalLoop=1;jettySize=auto;html=1;" edge="1" parent="1" source="7W_plpCJhQbWiAo0D66k-142" target="7W_plpCJhQbWiAo0D66k-144">
          <mxGeometry relative="1" as="geometry" />
        </mxCell>
        <mxCell id="7W_plpCJhQbWiAo0D66k-142" value="&lt;span style=&quot;text-align: left&quot;&gt;Add supplementary PUP status for local courier ONB&amp;nbsp;&lt;/span&gt;" style="rounded=1;whiteSpace=wrap;html=1;align=center;fillColor=#dae8fc;strokeColor=#6c8ebf;" vertex="1" parent="1">
          <mxGeometry x="329.5" y="420" width="125" height="60" as="geometry" />
        </mxCell>
        <mxCell id="7W_plpCJhQbWiAo0D66k-147" value="" style="edgeStyle=orthogonalEdgeStyle;rounded=0;orthogonalLoop=1;jettySize=auto;html=1;" edge="1" parent="1" source="7W_plpCJhQbWiAo0D66k-144" target="7W_plpCJhQbWiAo0D66k-146">
          <mxGeometry relative="1" as="geometry" />
        </mxCell>
        <mxCell id="7W_plpCJhQbWiAo0D66k-144" value="&lt;span style=&quot;text-align: left&quot;&gt;Add supplementary ONB for&amp;nbsp;&lt;/span&gt;&#39;DCY&#39;,&#39;ACL&#39;" style="rounded=1;whiteSpace=wrap;html=1;align=center;fillColor=#dae8fc;strokeColor=#6c8ebf;" vertex="1" parent="1">
          <mxGeometry x="470" y="420" width="125" height="60" as="geometry" />
        </mxCell>
        <mxCell id="7W_plpCJhQbWiAo0D66k-150" value="" style="edgeStyle=orthogonalEdgeStyle;rounded=0;orthogonalLoop=1;jettySize=auto;html=1;exitX=1;exitY=0.5;exitDx=0;exitDy=0;" edge="1" parent="1" source="7W_plpCJhQbWiAo0D66k-146" target="7W_plpCJhQbWiAo0D66k-149">
          <mxGeometry relative="1" as="geometry" />
        </mxCell>
        <mxCell id="7W_plpCJhQbWiAo0D66k-146" value="&lt;span style=&quot;text-align: left&quot;&gt;Add supplementary ONS for ACS&lt;/span&gt;" style="rounded=1;whiteSpace=wrap;html=1;align=center;fillColor=#dae8fc;strokeColor=#6c8ebf;" vertex="1" parent="1">
          <mxGeometry x="611" y="420" width="125" height="60" as="geometry" />
        </mxCell>
        <mxCell id="7W_plpCJhQbWiAo0D66k-149" value="&lt;div style=&quot;text-align: left&quot;&gt;&lt;span&gt;Generate futile reason codes from FTL status detail&lt;/span&gt;&lt;/div&gt;" style="rounded=1;whiteSpace=wrap;html=1;align=center;fillColor=#dae8fc;strokeColor=#6c8ebf;" vertex="1" parent="1">
          <mxGeometry x="50" y="520" width="125" height="60" as="geometry" />
        </mxCell>
        <mxCell id="7W_plpCJhQbWiAo0D66k-153" value="" style="edgeStyle=orthogonalEdgeStyle;rounded=0;orthogonalLoop=1;jettySize=auto;html=1;" edge="1" parent="1" source="7W_plpCJhQbWiAo0D66k-151" target="7W_plpCJhQbWiAo0D66k-152">
          <mxGeometry relative="1" as="geometry" />
        </mxCell>
        <mxCell id="7W_plpCJhQbWiAo0D66k-151" value="&lt;div style=&quot;box-sizing: border-box ; width: 100% ; background: #e4e4e4 ; padding: 2px&quot;&gt;&lt;b&gt;Division&lt;/b&gt;&lt;/div&gt;&lt;table style=&quot;width: 100% ; font-size: 1em&quot; cellpadding=&quot;2&quot; cellspacing=&quot;0&quot;&gt;&lt;tbody&gt;&lt;tr&gt;&lt;td&gt;PK&lt;/td&gt;&lt;td&gt;divid&lt;/td&gt;&lt;/tr&gt;&lt;tr&gt;&lt;td&gt;&lt;br&gt;&lt;/td&gt;&lt;td&gt;&lt;/td&gt;&lt;/tr&gt;&lt;/tbody&gt;&lt;/table&gt;" style="verticalAlign=top;align=left;overflow=fill;html=1;strokeColor=#1A1A1A;fillColor=#EEE2F5;strokeWidth=2;" vertex="1" parent="1">
          <mxGeometry x="45" y="1160" width="140" height="60" as="geometry" />
        </mxCell>
        <mxCell id="7W_plpCJhQbWiAo0D66k-155" value="" style="edgeStyle=orthogonalEdgeStyle;rounded=0;orthogonalLoop=1;jettySize=auto;html=1;" edge="1" parent="1" source="7W_plpCJhQbWiAo0D66k-152" target="7W_plpCJhQbWiAo0D66k-154">
          <mxGeometry relative="1" as="geometry" />
        </mxCell>
        <mxCell id="7W_plpCJhQbWiAo0D66k-152" value="&lt;div style=&quot;box-sizing: border-box ; width: 100% ; background: #e4e4e4 ; padding: 2px&quot;&gt;&lt;b&gt;Service&lt;/b&gt;&lt;/div&gt;&lt;table style=&quot;width: 100% ; font-size: 1em&quot; cellpadding=&quot;2&quot; cellspacing=&quot;0&quot;&gt;&lt;tbody&gt;&lt;tr&gt;&lt;td&gt;PK&lt;/td&gt;&lt;td&gt;divsvcid&lt;/td&gt;&lt;/tr&gt;&lt;tr&gt;&lt;td&gt;FK&lt;/td&gt;&lt;td&gt;divid&lt;/td&gt;&lt;/tr&gt;&lt;/tbody&gt;&lt;/table&gt;" style="verticalAlign=top;align=left;overflow=fill;html=1;strokeColor=#1A1A1A;fillColor=#EEE2F5;strokeWidth=2;" vertex="1" parent="1">
          <mxGeometry x="265" y="1160" width="140" height="60" as="geometry" />
        </mxCell>
        <mxCell id="7W_plpCJhQbWiAo0D66k-154" value="&lt;div style=&quot;box-sizing: border-box ; width: 100% ; background: #e4e4e4 ; padding: 2px&quot;&gt;&lt;b&gt;Consignment&lt;/b&gt;&lt;/div&gt;&lt;table style=&quot;width: 100% ; font-size: 1em&quot; cellpadding=&quot;2&quot; cellspacing=&quot;0&quot;&gt;&lt;tbody&gt;&lt;tr&gt;&lt;td&gt;PK&lt;/td&gt;&lt;td&gt;tfuid&lt;/td&gt;&lt;/tr&gt;&lt;tr&gt;&lt;td&gt;FK&lt;/td&gt;&lt;td&gt;divsvcid&lt;/td&gt;&lt;/tr&gt;&lt;/tbody&gt;&lt;/table&gt;" style="verticalAlign=top;align=left;overflow=fill;html=1;strokeColor=#1A1A1A;fillColor=#EEE2F5;strokeWidth=2;" vertex="1" parent="1">
          <mxGeometry x="485" y="1160" width="140" height="60" as="geometry" />
        </mxCell>
        <mxCell id="7W_plpCJhQbWiAo0D66k-157" value="" style="group" vertex="1" connectable="0" parent="1">
          <mxGeometry x="60" y="200" width="690" height="90" as="geometry" />
        </mxCell>
        <mxCell id="7W_plpCJhQbWiAo0D66k-105" value="&lt;p style=&quot;margin: 0px ; margin-top: 4px ; text-align: center ; text-decoration: underline&quot;&gt;&lt;/p&gt;&lt;p style=&quot;text-align: left ; margin: 0px 0px 0px 8px&quot;&gt;&lt;br&gt;&lt;/p&gt;&lt;p style=&quot;margin: 0px 0px 0px 8px&quot;&gt;Extract&amp;nbsp;&lt;/p&gt;&lt;p style=&quot;margin: 0px 0px 0px 8px&quot;&gt;statuses collected by ECS Extract&lt;/p&gt;&lt;p style=&quot;margin: 0px 0px 0px 8px&quot;&gt;&lt;br&gt;&lt;/p&gt;" style="verticalAlign=middle;align=center;overflow=fill;fontSize=12;fontFamily=Helvetica;html=1;rounded=1;fontStyle=1;strokeWidth=3;fillColor=#E6FFCC;whiteSpace=wrap;" vertex="1" parent="7W_plpCJhQbWiAo0D66k-157">
          <mxGeometry width="110" height="90" as="geometry" />
        </mxCell>
        <mxCell id="7W_plpCJhQbWiAo0D66k-119" value="&lt;br&gt;&lt;br&gt;Add International Apple Cons with CRP, PP1, PP2" style="verticalAlign=middle;align=center;overflow=fill;fontSize=12;fontFamily=Helvetica;html=1;rounded=1;fontStyle=1;strokeWidth=3;fillColor=#E6FFCC;horizontal=1;whiteSpace=wrap;arcSize=17;" vertex="1" parent="7W_plpCJhQbWiAo0D66k-157">
          <mxGeometry x="290" width="110" height="90" as="geometry" />
        </mxCell>
        <mxCell id="7W_plpCJhQbWiAo0D66k-121" value="&lt;br&gt;&lt;br&gt;Add myTNT Apple cons based on account" style="verticalAlign=middle;align=center;overflow=fill;fontSize=12;fontFamily=Helvetica;html=1;rounded=1;fontStyle=1;strokeWidth=3;fillColor=#E6FFCC;horizontal=1;whiteSpace=wrap;arcSize=17;" vertex="1" parent="7W_plpCJhQbWiAo0D66k-157">
          <mxGeometry x="580" width="110" height="90" as="geometry" />
        </mxCell>
        <mxCell id="7W_plpCJhQbWiAo0D66k-120" value="" style="edgeStyle=orthogonalEdgeStyle;rounded=0;orthogonalLoop=1;jettySize=auto;html=1;" edge="1" parent="7W_plpCJhQbWiAo0D66k-157" source="7W_plpCJhQbWiAo0D66k-105" target="7W_plpCJhQbWiAo0D66k-119">
          <mxGeometry relative="1" as="geometry" />
        </mxCell>
        <mxCell id="7W_plpCJhQbWiAo0D66k-122" value="" style="edgeStyle=orthogonalEdgeStyle;rounded=0;orthogonalLoop=1;jettySize=auto;html=1;" edge="1" parent="7W_plpCJhQbWiAo0D66k-157" source="7W_plpCJhQbWiAo0D66k-119" target="7W_plpCJhQbWiAo0D66k-121">
          <mxGeometry relative="1" as="geometry" />
        </mxCell>
      </root>
    </mxGraphModel>
  </diagram>
</mxfile>
